<svg width="23" height="20" viewBox="0 0 23 20" fill="none" xmlns="http://www.w3.org/2000/svg">
<path d="M10.4545 13.1469C10.4545 13.3725 10.4686 13.598 10.4968 13.8219C10.4686 13.598 10.4545 13.3725 10.4545 13.1469C10.4563 12.8078 10.4903 12.4697 10.5562 12.1371" stroke="#057BFF" stroke-width="1.6" stroke-linecap="round" stroke-linejoin="round"/>
<path fill-rule="evenodd" clip-rule="evenodd" d="M15.8546 18.5469C18.7063 18.5503 21.0692 16.3356 21.2501 13.4896C21.4311 10.6436 19.3678 8.14743 16.5385 7.78962C13.7093 7.4318 11.0895 9.33567 10.5563 12.1371C9.30632 11.5379 7.81699 11.7651 6.80249 12.7096C5.788 13.6542 5.45522 15.1235 5.96375 16.413C6.47228 17.7025 7.71842 18.5491 9.10455 18.5469H15.8546Z" stroke="#057BFF" stroke-width="1.6" stroke-linecap="round" stroke-linejoin="round"/>
<path d="M5.72953 6.39688C5.7295 6.62255 5.74363 6.84799 5.77183 7.07188C5.74363 6.84799 5.7295 6.62255 5.72953 6.39688C5.73127 6.05782 5.76533 5.71969 5.83123 5.38708" stroke="#057BFF" stroke-width="1.6" stroke-linecap="round" stroke-linejoin="round"/>
<path d="M16.3576 5.03971C15.7216 2.59624 13.4773 0.919713 10.9537 1.00297C8.43021 1.08622 6.30126 2.90703 5.82764 5.38711C4.57772 4.7879 3.08838 5.01504 2.07389 5.95958C1.05939 6.90413 0.726613 8.37347 1.23514 9.66295C1.74368 10.9524 2.98981 11.7991 4.37594 11.7969" stroke="#057BFF" stroke-width="1.6" stroke-linecap="round" stroke-linejoin="round"/>
</svg>
