<svg width="23" height="23" viewBox="0 0 23 23" fill="none" xmlns="http://www.w3.org/2000/svg">
<path d="M11.8795 14.3182L8.72946 17.4682H13.4545L9.51696 21.4057" stroke="white" stroke-width="2" stroke-linecap="round" stroke-linejoin="round"/>
<circle cx="2.42946" cy="21.4057" r="0.39375" stroke="white" stroke-width="2.3" stroke-linecap="round" stroke-linejoin="round"/>
<circle cx="15.0295" cy="21.4057" r="0.39375" stroke="white" stroke-width="2" stroke-linecap="round" stroke-linejoin="round"/>
<path d="M8.72947 8.01819C8.72943 8.28146 8.74591 8.54448 8.77882 8.80569C8.74591 8.54448 8.72943 8.28146 8.72947 8.01819C8.73098 7.62258 8.77071 7.22805 8.84812 6.84009" stroke="white" stroke-width="2" stroke-linecap="round" stroke-linejoin="round"/>
<path fill-rule="evenodd" clip-rule="evenodd" d="M15.0295 14.3182C18.3565 14.3222 21.1132 11.7384 21.3243 8.41798C21.5354 5.09761 19.1282 2.18546 15.8274 1.768C12.5267 1.35055 9.47027 3.57173 8.8481 6.84011C7.38985 6.14104 5.6523 6.40602 4.46872 7.50799C3.28514 8.60996 2.8969 10.3242 3.49019 11.8286C4.08347 13.333 5.5373 14.3208 7.15445 14.3182H15.0295Z" stroke="white" stroke-width="2" stroke-linecap="round" stroke-linejoin="round"/>
<path d="M6.36695 17.4682L2.7077 21.1275" stroke="white" stroke-width="2" stroke-linecap="round" stroke-linejoin="round"/>
<path d="M18.967 17.4682L15.3077 21.1275" stroke="white" stroke-width="2" stroke-linecap="round" stroke-linejoin="round"/>
</svg>
